# xmcd
#
# Track frame offsets:
#  151
#  14218
#  28917
#  44513
#  59295
#  73221
#  87864
#  108368
#  122747
#  138478
#  152262
#  169847
#  195196
#  218306
#
# Disc length: 3157 seconds
#
# Revision: 0
# Processed by: cddbd v1.5.1PL2 Copyright (c) Steve Scherf et al.
# Submitted via: Collectorz.com_Music_Collector 6.9
#
DISCID=be0c530e
DTITLE=Paul King - Last Supper? Disk 1
DYEAR=2005
DGENRE=King and Earl
TTITLE0=Jigolo Stomp
TTITLE1=Money For Rope
TTITLE2=Go Back To School
TTITLE3=Phobia
TTITLE4=Sailor's Farewell
TTITLE5=Dressed To Kill
TTITLE6=Vision Of You
TTITLE7=Live For Today
TTITLE8=Aint Superstitious
TTITLE9=Hurricane Janine
TTITLE10=Voodoo
TTITLE11=Banks Of The Ohio
TTITLE12=Working On The Railroad
TTITLE13=The Rain
EXTD=
EXTT0=
EXTT1=
EXTT2=
EXTT3=
EXTT4=
EXTT5=
EXTT6=
EXTT7=
EXTT8=
EXTT9=
EXTT10=
EXTT11=
EXTT12=
EXTT13=
PLAYORDER=
